<?xml version="1.0" encoding="UTF-8"?>
<!DOCTYPE svg PUBLIC "-//W3C//DTD SVG 1.1//EN" "http://www.w3.org/Graphics/SVG/1.1/DTD/svg11.dtd">
<!-- Creator: CorelDRAW -->
<svg xmlns="http://www.w3.org/2000/svg" xml:space="preserve" width="169.784mm" height="140.359mm" version="1.1"
     style="shape-rendering:geometricPrecision; text-rendering:geometricPrecision; image-rendering:optimizeQuality; fill-rule:evenodd; clip-rule:evenodd"
     viewBox="0 0 17484.68 14454.47"
     xmlns:xlink="http://www.w3.org/1999/xlink"
>
 <defs>
  <style type="text/css">
   <![CDATA[
    .fil2 {fill:#AD070C}
    .fil3 {fill:#E83219}
    .fil0 {fill:#EDB009}
    .fil4 {fill:#727271;fill-rule:nonzero}
    .fil1 {fill:#FFFEF5;fill-rule:nonzero}
   ]]>
  </style>
   <clipPath id="id0">
    <rect x="267.07" y="200.54" width="17028.45" height="9835.17"/>
   </clipPath>
   <clipPath id="id1">
    <rect x="92.69" width="17385.93" height="10183.93"/>
   </clipPath>
   <clipPath id="id2">
    <rect x="2010.9" y="2223.38" width="5571.52" height="5929"/>
   </clipPath>
   <clipPath id="id3">
    <rect x="10006.32" y="2171.06" width="4978.63" height="5963.88"/>
   </clipPath>
   <clipPath id="id4">
    <rect x="2743.3" y="5658.71" width="3897.45" height="4220.06"/>
   </clipPath>
   <clipPath id="id5">
    <rect x="7355.73" y="313.89" width="3897.44" height="4211.34"/>
   </clipPath>
 </defs>
 <g id="Слой_x0020_1">
  <metadata id="CorelCorpID_0Corel-Layer"/>
  <g style="clip-path:url(#id0)">
   <image x="267.07" y="200.54" width="17028.45" height="9835.17" xlink:href="лого_луч_svg_Images\лого_луч_svg_ImgID1.png"/>
  </g>
  <g style="clip-path:url(#id1)">
   <image x="92.69" y="0" width="17385.93" height="10183.93" xlink:href="лого_луч_svg_Images\лого_луч_svg_ImgID2.png"/>
  </g>
  <polygon class="fil0" points="14918.36,10154.63 14634,9738.19 16009.35,7380.97 16990.82,274.47 17473.55,2.35 16436.09,7524.33 "/>
  <polygon class="fil0" points="582.02,9892.63 1251.52,5012.13 3995.63,384 3554.56,23.19 853.75,4688.74 99.04,10178.71 "/>
  <g style="clip-path:url(#id2)">
   <image x="2010.9" y="2223.38" width="5571.52" height="5929" xlink:href="лого_луч_svg_Images\лого_луч_svg_ImgID3.png"/>
  </g>
  <g style="clip-path:url(#id3)">
   <image x="10006.32" y="2171.06" width="4978.63" height="5963.88" xlink:href="лого_луч_svg_Images\лого_луч_svg_ImgID4.png"/>
  </g>
  <polygon class="fil1" points="8013.19,2184.87 6460.99,2187.19 7862.99,6213.22 6713.77,8140.72 8336.8,8138.29 11859.86,2179.11 10186.38,2181.61 8825.71,4534.48 "/>
  <g style="clip-path:url(#id4)">
   <image x="2743.3" y="5658.71" width="3897.45" height="4220.06" xlink:href="лого_луч_svg_Images\лого_луч_svg_ImgID5.png"/>
  </g>
  <polygon class="fil2" points="2744.51,9870.51 4777.81,8412.22 5166.42,5662.57 "/>
  <polygon class="fil3" points="6640.54,9866.09 5166.42,5662.57 4777.81,8412.22 "/>
  <g style="clip-path:url(#id5)">
   <image x="7355.73" y="313.89" width="3897.44" height="4211.34" xlink:href="лого_луч_svg_Images\лого_луч_svg_ImgID6.png"/>
  </g>
  <polygon class="fil2" points="11251.8,314.89 9218.5,1773.18 8829.88,4522.84 "/>
  <polygon class="fil3" points="7355.78,319.32 8829.88,4522.84 9218.5,1773.18 "/>
  <path class="fil4" d="M374.37 12251.74l498.93 0 0 222.08 -762.37 0 0 -970.81 748.97 0 0 222.07 -485.52 0 0 152.29 374.37 0 0 208.45 -374.37 0 0 165.92zm1121.54 222.08l0 -289.79 -69.55 -77.87 -242.42 367.67 -304.81 0 373.91 -568.72 -346.64 -402.09 305.27 0 284.24 333 0 -333 263.45 0 0 333 284.24 -333 304.82 0 -346.64 402.09 374.36 568.72 -304.58 0 -243.1 -367.67 -69.1 77.87 0 289.79 -263.45 0zm1204.05 -222.08l498.93 0 0 222.08 -762.37 0 0 -970.81 748.97 0 0 222.07 -485.52 0 0 152.29 374.37 0 0 208.45 -374.37 0 0 165.92zm518.4 -13.63l55.47 0 15.01 -14.79c6.7,-6.7 17.8,-22.88 33.51,-48.3 15.48,-25.65 29.35,-53.39 41.59,-83.43 12.25,-30.04 23.35,-70.48 33.51,-121.09 10.16,-50.84 15.25,-104.92 15.25,-162.23l0 -305.27 721.01 0 0 735.09 110.92 0 0 430.06 -263.9 0 0 -194.35 -498.93 0 0 194.35 -263.45 0 0 -430.06zm457.56 -429.83c0,57.31 -4.85,111.15 -14.56,161.53 -9.7,50.38 -21.26,91.06 -34.66,122.49 -13.62,31.42 -27.03,58.69 -40.44,82.04 -13.17,23.11 -24.95,39.74 -34.89,49.68l-14.1 14.1 333 0 0 -498.93 -194.35 0 0 69.1zm1550.92 -305.27l0 970.81 -263.44 0 0 -374.37 -353.34 0 0 374.37 -263.45 0 0 -970.81 263.45 0 0 360.72 353.34 0 0 -360.72 263.44 0zm449.31 748.73l498.93 0 0 222.08 -762.37 0 0 -970.81 748.97 0 0 222.07 -485.52 0 0 152.29 374.37 0 0 208.45 -374.37 0 0 165.92zm1093.82 222.08l-464.5 0 0 -970.81 436.77 0c99.83,0 180.02,25.42 241.03,76.48 61.01,51.07 91.51,110.92 91.51,180.02 0,26.58 -4.39,52 -12.94,76.26 -8.55,24.04 -18.95,43.45 -31.19,57.77 -12.24,14.56 -24.26,27.04 -36.28,37.67 -11.79,10.63 -22.42,18.02 -31.43,22.65l-12.71 6.7c4.39,1.84 10.63,4.39 18.49,7.86 7.86,3.46 21.72,11.32 41.59,23.8 19.88,12.24 37.43,26.34 52.92,42.29 15.25,15.7 29.11,37.43 41.59,64.93 12.48,27.51 18.72,57.55 18.72,90.13 0,75.79 -33.28,142.11 -99.37,198.97 -66.09,56.85 -150.67,85.27 -254.2,85.27zm-201.05 -207.76l180.02 0c30.73,0 55.92,-9.24 75.33,-27.96 19.41,-18.49 29.11,-41.59 29.11,-69.33 0,-27.73 -9.7,-50.84 -29.11,-69.33 -19.41,-18.49 -44.6,-27.73 -75.33,-27.73l-180.02 0 0 194.35zm145.59 -554.62l-145.59 0 0 165.92 145.59 0c27.5,0 49.45,-7.62 65.63,-22.65 16.18,-15.25 24.5,-35.35 24.5,-60.32 0,-24.95 -8.32,-45.05 -24.5,-60.31 -16.18,-15.03 -38.13,-22.66 -65.63,-22.66zm1419.42 -208.44l0 970.81 -263.44 0 0 -374.37 -353.34 0 0 374.37 -263.45 0 0 -970.81 263.45 0 0 360.72 353.34 0 0 -360.72 263.44 0zm678.08 555.07l-89.89 -284.24 -90.12 284.24 180.01 0zm69.1 207.98l-318.9 0 -69.1 207.76 -284.24 0 367.67 -970.81 291.17 0 367.44 970.81 -284.24 0 -69.79 -207.76zm1204.74 -763.05l0 970.81 -263.45 0 0 -305.27 -138.65 0 -166.61 305.27 -277.54 0 201.05 -353.34c-4.62,-1.84 -10.64,-4.85 -18.03,-9.24 -7.39,-4.16 -20.57,-14.56 -39.51,-31.2 -18.95,-16.41 -35.82,-34.43 -50.38,-54.08 -14.79,-19.64 -28.2,-46.44 -39.98,-80.65 -12.02,-33.97 -18.02,-70.48 -18.02,-109.3 0,-94.29 33.27,-173.32 99.83,-237.33 66.55,-63.79 151.13,-95.67 253.5,-95.67l457.8 0zm-519.03 263.67c-19.19,18.25 -28.66,41.36 -28.66,69.09 0,27.73 9.71,50.84 29.12,69.33 19.41,18.49 44.14,27.73 74.4,27.73l180.71 0 0 -193.66 -180.71 0c-30.73,0 -55.69,9.25 -74.87,27.51zm1282.38 23.56c-52.92,52.7 -79.27,118.79 -79.27,198.05 0,79.49 26.34,145.59 79.27,198.51 52.69,52.69 118.78,79.25 198.28,79.25 49.22,0 95.67,-10.39 139.57,-31.19 43.68,-20.8 75.34,-41.83 94.75,-63.09l29.11 -30.97 152.29 166.39c-3.7,5.54 -9.01,12.48 -15.94,21.49 -6.93,8.77 -23.35,24.26 -48.76,46.68 -25.42,22.18 -52.92,42.06 -82.5,59.15 -29.58,17.11 -68.64,32.58 -117.16,46.46 -48.54,13.63 -98.9,20.57 -151.36,20.57 -150.67,0 -278.47,-50.38 -383.62,-151.36 -104.92,-100.76 -157.37,-221.39 -157.37,-361.89 0,-140.28 52.45,-260.9 157.37,-361.89 105.14,-100.76 232.94,-151.14 383.62,-151.14 52,0 101.45,6.7 148.36,20.33 46.91,13.41 85.51,29.59 116.01,48.76 30.5,18.95 57.08,37.9 79.96,56.86 22.65,18.95 39.06,35.12 49,48.75l15.7 19.65 -159.91 166.39c-2.77,-3.47 -6.24,-8.09 -10.86,-13.87 -4.39,-5.54 -14.79,-15.48 -30.97,-29.81 -16.41,-14.09 -33.27,-26.81 -50.83,-37.9 -17.57,-11.09 -40.68,-21.03 -69.33,-29.8 -28.66,-8.78 -57.77,-13.18 -87.12,-13.18 -79.5,0 -145.6,26.35 -198.28,78.8zm716.44 -287.24l436.77 0c106.53,0 193.19,32.12 259.98,96.36 66.78,64.48 100.29,145.59 100.29,243.57 0,97.75 -33.51,178.86 -100.53,243.34 -67.01,64.24 -153.67,96.37 -259.74,96.37l-173.32 0 0 291.17 -263.45 0 0 -970.81zm422.67 236.17l-159.22 0 0 207.98 159.22 0c30.5,0 56.85,-10.4 78.34,-31.19 21.72,-20.8 32.58,-45.06 32.58,-72.8 0,-27.73 -10.86,-52 -32.58,-72.79 -21.49,-20.8 -47.84,-31.2 -78.34,-31.2zm797.09 51.07c-52,52.7 -77.87,118.79 -77.87,198.05 0,79.49 25.88,145.59 77.87,198.51 52,52.69 116.25,79.25 192.97,79.25 76.72,0 140.96,-26.57 192.73,-79.25 51.53,-52.92 77.41,-119.02 77.41,-198.51 0,-79.27 -25.88,-145.36 -77.41,-198.05 -51.77,-52.45 -116.01,-78.8 -192.73,-78.8 -76.72,0 -140.97,26.35 -192.97,78.8zm575.88 -163.61c104.91,100.76 157.37,221.38 157.37,361.66 0,140.5 -52.46,261.13 -157.37,361.89 -104.92,100.98 -232.71,151.36 -383.15,151.36 -150.67,0 -278.24,-50.38 -383.38,-151.36 -104.92,-100.76 -157.37,-221.39 -157.37,-361.89 0,-140.28 52.45,-260.9 157.37,-361.89 105.14,-100.76 232.71,-151.14 383.38,-151.14 150.45,0 278.24,50.38 383.15,151.36zm536.89 -123.63l0 298.56c0,46.91 13.4,84.12 40.21,111.39 26.81,27.27 63.09,40.9 108.6,40.9 27.51,0 54.54,-3.92 80.88,-11.78 26.58,-7.86 45.53,-15.95 57.31,-24.04l18.26 -12.94 0 -402.09 263.45 0 0 970.81 -263.45 0 0 -325.61c-60.08,27.5 -129.41,41.37 -207.98,41.37 -111.85,0 -199.89,-33.74 -264.36,-101.22 -64.24,-67.47 -96.37,-163.15 -96.37,-286.78l0 -298.56 263.45 0zm1634.57 0l0 970.81 -263.44 0 0 -374.37 -353.34 0 0 374.37 -263.45 0 0 -970.81 263.45 0 0 360.72 353.34 0 0 -360.72 263.44 0zm678.08 555.07l-89.89 -284.24 -90.12 284.24 180.01 0zm69.1 207.98l-318.9 0 -69.1 207.76 -284.24 0 367.67 -970.81 291.17 0 367.44 970.81 -284.24 0 -69.79 -207.76zm1204.74 -763.05l0 970.81 -263.45 0 0 -305.27 -138.65 0 -166.61 305.27 -277.54 0 201.05 -353.34c-4.62,-1.84 -10.64,-4.85 -18.03,-9.24 -7.39,-4.16 -20.57,-14.56 -39.51,-31.2 -18.95,-16.41 -35.82,-34.43 -50.38,-54.08 -14.79,-19.64 -28.2,-46.44 -39.98,-80.65 -12.02,-33.97 -18.02,-70.48 -18.02,-109.3 0,-94.29 33.27,-173.32 99.83,-237.33 66.55,-63.79 151.13,-95.67 253.5,-95.67l457.8 0zm-519.03 263.67c-19.19,18.25 -28.66,41.36 -28.66,69.09 0,27.73 9.71,50.84 29.12,69.33 19.41,18.49 44.14,27.73 74.4,27.73l180.71 0 0 -193.66 -180.71 0c-30.73,0 -55.69,9.25 -74.87,27.51zm-16965.65 2257.72l55.47 0 15.01 -14.79c6.7,-6.7 17.8,-22.88 33.51,-48.3 15.48,-25.65 29.35,-53.39 41.59,-83.43 12.25,-30.04 23.35,-70.48 33.51,-121.09 10.16,-50.84 15.25,-104.92 15.25,-162.23l0 -305.27 721.01 0 0 735.09 110.92 0 0 430.06 -263.9 0 0 -194.35 -498.93 0 0 194.35 -263.45 0 0 -430.06zm457.56 -429.83c0,57.31 -4.85,111.15 -14.56,161.53 -9.7,50.38 -21.26,91.06 -34.66,122.49 -13.62,31.42 -27.03,58.69 -40.44,82.04 -13.17,23.11 -24.95,39.74 -34.89,49.68l-14.1 14.1 333 0 0 -498.93 -194.35 0 0 69.1zm963.25 -18.03c-52,52.7 -77.87,118.79 -77.87,198.05 0,79.49 25.88,145.59 77.87,198.51 52,52.69 116.25,79.25 192.97,79.25 76.72,0 140.96,-26.57 192.73,-79.25 51.53,-52.92 77.41,-119.02 77.41,-198.51 0,-79.27 -25.88,-145.36 -77.41,-198.05 -51.77,-52.45 -116.01,-78.8 -192.73,-78.8 -76.72,0 -140.97,26.35 -192.97,78.8zm575.88 -163.61c104.91,100.76 157.37,221.38 157.37,361.66 0,140.5 -52.46,261.13 -157.37,361.89 -104.92,100.98 -232.71,151.36 -383.15,151.36 -150.67,0 -278.24,-50.38 -383.38,-151.36 -104.92,-100.76 -157.37,-221.39 -157.37,-361.89 0,-140.28 52.45,-260.9 157.37,-361.89 105.14,-100.76 232.71,-151.14 383.38,-151.14 150.45,0 278.24,50.38 383.15,151.36zm574.78 163.61c-52.92,52.7 -79.27,118.79 -79.27,198.05 0,79.49 26.34,145.59 79.27,198.51 52.69,52.69 118.78,79.25 198.28,79.25 49.22,0 95.67,-10.39 139.57,-31.19 43.68,-20.8 75.34,-41.83 94.75,-63.09l29.11 -30.97 152.29 166.39c-3.7,5.54 -9.01,12.48 -15.94,21.49 -6.93,8.77 -23.35,24.26 -48.76,46.68 -25.42,22.18 -52.92,42.06 -82.5,59.15 -29.58,17.11 -68.64,32.58 -117.16,46.46 -48.54,13.63 -98.9,20.57 -151.36,20.57 -150.67,0 -278.47,-50.38 -383.62,-151.36 -104.92,-100.76 -157.37,-221.39 -157.37,-361.89 0,-140.28 52.45,-260.9 157.37,-361.89 105.14,-100.76 232.94,-151.14 383.62,-151.14 52,0 101.45,6.7 148.36,20.33 46.91,13.41 85.51,29.59 116.01,48.76 30.5,18.95 57.08,37.9 79.96,56.86 22.65,18.95 39.06,35.12 49,48.75l15.7 19.65 -159.91 166.39c-2.77,-3.47 -6.24,-8.09 -10.86,-13.87 -4.39,-5.54 -14.79,-15.48 -30.97,-29.81 -16.41,-14.09 -33.27,-26.81 -50.83,-37.9 -17.57,-11.09 -40.68,-21.03 -69.33,-29.8 -28.66,-8.78 -57.77,-13.18 -87.12,-13.18 -79.5,0 -145.6,26.35 -198.28,78.8zm633.26 -287.24l804.42 0 0 236.17 -270.83 0 0 734.64 -263.45 0 0 -734.64 -270.14 0 0 -236.17zm1314.96 555.07l-89.89 -284.24 -90.12 284.24 180.01 0zm69.1 207.98l-318.9 0 -69.1 207.76 -284.24 0 367.67 -970.81 291.17 0 367.44 970.81 -284.24 0 -69.79 -207.76zm892.54 207.76l-464.5 0 0 -970.81 436.77 0c99.83,0 180.02,25.42 241.03,76.48 61.01,51.07 91.51,110.92 91.51,180.02 0,26.58 -4.39,52 -12.94,76.26 -8.55,24.04 -18.95,43.45 -31.19,57.77 -12.24,14.56 -24.26,27.04 -36.28,37.67 -11.79,10.63 -22.42,18.02 -31.43,22.65l-12.71 6.7c4.39,1.84 10.63,4.39 18.49,7.86 7.86,3.46 21.72,11.32 41.59,23.8 19.88,12.24 37.43,26.34 52.92,42.29 15.25,15.7 29.11,37.43 41.59,64.93 12.48,27.51 18.72,57.55 18.72,90.13 0,75.79 -33.28,142.11 -99.37,198.97 -66.09,56.85 -150.67,85.27 -254.2,85.27zm-201.05 -207.76l180.02 0c30.73,0 55.92,-9.24 75.33,-27.96 19.41,-18.49 29.11,-41.59 29.11,-69.33 0,-27.73 -9.7,-50.84 -29.11,-69.33 -19.41,-18.49 -44.6,-27.73 -75.33,-27.73l-180.02 0 0 194.35zm145.59 -554.62l-145.59 0 0 165.92 145.59 0c27.5,0 49.45,-7.62 65.63,-22.65 16.18,-15.25 24.5,-35.35 24.5,-60.32 0,-24.95 -8.32,-45.05 -24.5,-60.31 -16.18,-15.03 -38.13,-22.66 -65.63,-22.66zm906.86 394.71l-104.22 117.85 0 249.81 -263.45 0 0 -970.81 263.45 0 0 374.36 318.9 -374.36 305.27 0 -346.64 402.09 374.37 568.72 -305.27 0 -242.42 -367.67zm1100.52 -48.07l-89.89 -284.24 -90.12 284.24 180.01 0zm69.1 207.98l-318.9 0 -69.1 207.76 -284.24 0 367.67 -970.81 291.17 0 367.44 970.81 -284.24 0 -69.79 -207.76zm719.21 207.76l0 -970.81 693.27 0 0 236.17 -429.83 0 0 734.64 -263.45 0zm781.61 -970.81l436.77 0c106.53,0 193.19,32.12 259.98,96.36 66.78,64.48 100.29,145.59 100.29,243.57 0,97.75 -33.51,178.86 -100.53,243.34 -67.01,64.24 -153.67,96.37 -259.74,96.37l-173.32 0 0 291.17 -263.45 0 0 -970.81zm422.67 236.17l-159.22 0 0 207.98 159.22 0c30.5,0 56.85,-10.4 78.34,-31.19 21.72,-20.8 32.58,-45.06 32.58,-72.8 0,-27.73 -10.86,-52 -32.58,-72.79 -21.49,-20.8 -47.84,-31.2 -78.34,-31.2zm650.12 -236.17l186.95 395.39 159.68 -395.39 284.48 0 -339.93 721c-37.91,78.58 -86.66,142.13 -146.29,190.65 -59.39,48.54 -128.49,72.8 -207.06,72.8 -22.18,0 -43.67,-1.85 -64.7,-5.55 -21.03,-3.46 -36.52,-7.16 -46.46,-10.85l-14.1 -3.93 0 -229.01c23.11,9.25 50.84,13.63 83.2,13.63 36.97,0 68.17,-8.78 93.13,-26.34 25.19,-17.56 42.52,-36.52 52.46,-56.85l14.32 -27.73 -339.93 -637.81 284.24 0zm1190.65 457.56c4.4,1.84 10.64,4.39 18.5,7.86 8.08,3.46 21.95,11.55 41.82,24.26 19.65,12.94 37.44,27.73 52.7,44.36 15.25,16.88 29.34,39.99 41.59,69.56 12.48,29.58 18.71,61.93 18.71,97.06 0,83.88 -35.12,154.6 -105.37,211.91 -70.03,57.31 -166.85,85.97 -290.02,85.97 -47.85,0 -94.52,-5.78 -139.82,-17.33 -45.29,-11.33 -82.96,-25.43 -113,-41.59 -30.04,-16.18 -56.85,-32.36 -80.42,-48.76 -23.34,-16.18 -40.67,-30.28 -52,-41.83l-16.87 -17.09 152.98 -158.99c6.24,6.24 15.72,14.56 27.96,24.73 12.48,10.16 37.44,23.57 74.88,40.2 37.43,16.64 74.64,25.19 111.62,25.19 46.22,0 81.8,-9.7 107.45,-29.11 25.43,-19.41 38.13,-42.29 38.13,-68.4 0,-55.69 -43.67,-83.2 -131.26,-82.74l-125.26 0 0 -222.08 110.93 0c39.74,0 69.33,-7.16 88.74,-21.49 19.4,-14.55 29.11,-33.27 29.11,-56.38 0,-21.96 -10.16,-39.98 -30.5,-53.61 -20.34,-13.86 -51.53,-20.8 -94.05,-20.8 -30.74,0 -60.54,5.78 -89.67,17.33 -29.11,11.55 -49.92,23.11 -62.62,34.9l-21.03 16.87 -152.29 -159.68c2.77,-3.7 7.16,-8.78 13.63,-15.03 6.24,-6.24 20.79,-18.02 43.67,-35.13 22.65,-17.09 47.15,-31.88 73.02,-44.36 25.88,-12.48 60.32,-24.04 103.3,-34.89 42.75,-10.86 87.35,-16.18 133.34,-16.18 109.3,0 197.81,27.96 265.75,83.88 67.94,55.93 101.91,120.41 101.91,193.66 0,49.23 -12.25,91.06 -36.74,125.48 -24.27,34.66 -48.54,57.08 -73.02,67.48l-35.83 14.79zm767.98 97.51l-89.89 -284.24 -90.12 284.24 180.01 0zm69.1 207.98l-318.9 0 -69.1 207.76 -284.24 0 367.67 -970.81 291.17 0 367.44 970.81 -284.24 0 -69.79 -207.76z"/>
 </g>
</svg>
